<?xml version="1.0" encoding="utf-8"?>
<!-- Generator: Adobe Illustrator 18.0.0, SVG Export Plug-In . SVG Version: 6.00 Build 0)  -->
<!DOCTYPE svg PUBLIC "-//W3C//DTD SVG 1.1//EN" "http://www.w3.org/Graphics/SVG/1.1/DTD/svg11.dtd">
<svg version="1.1" id="Layer_1" xmlns="http://www.w3.org/2000/svg" xmlns:xlink="http://www.w3.org/1999/xlink" x="0px" y="0px"
	 viewBox="440 560 250 550" enable-background="new 0 0 1133.9 1700.8" xml:space="preserve" style="fill:#409a3c">
<path d="M530.2,688.1c0,8.5,0,15.2,0,24.3c-15.9,0-31.7,0.4-47.5-0.1c-11.8-0.4-15.9,4.3-15.9,16c0.3,78.9,0.3,157.8-0.1,236.6
	c-0.1,13.2,4.4,18.3,17.6,17.6c14.8-0.8,29.7-0.2,45.6-0.2c0,8.4,0,15.5,0,23.7c-22,0-43.8,1.1-65.4-0.4
	c-14.6-1-21.7-12.2-21.8-30.4c-0.3-50.6-0.2-101.3-0.2-151.9c0-34.1-0.1-68.2,0.2-102.3c0.2-24.2,8.7-32.7,32.9-32.9
	C493.6,687.9,511.6,688.1,530.2,688.1z"/>
<path d="M697.4,716.5c0.1-15.3-6-23.5-21-26.9c-32.6-7.5-65-16-97.6-23.7c-25.7-6.1-33.7,0.7-33.7,27.9c0,51.1,0,102.3,0,153.4
	c0,52.7-0.1,105.5,0.1,158.2c0.1,21.3,8.9,28.9,28.4,24.4c34.2-8,68.1-16.9,102.3-24.5c16-3.6,21.6-12.5,21.5-28.2
	C697.1,890.2,697.1,803.3,697.4,716.5z M601.7,860.6C601.7,860.6,601.7,860.6,601.7,860.6c-0.2,10.8-9,19.5-19.8,19.5
	c-11,0-19.8-8.9-19.8-19.8s8.9-19.8,19.8-19.8c11,0,19.8,8.9,19.8,19.8C601.7,860.3,601.7,860.4,601.7,860.6
	C601.7,860.6,601.7,860.6,601.7,860.6z"/>
</svg>
