<?xml version="1.0" encoding="utf-8"?>
<!-- Generator: Adobe Illustrator 18.0.0, SVG Export Plug-In . SVG Version: 6.00 Build 0)  -->
<!DOCTYPE svg PUBLIC "-//W3C//DTD SVG 1.1//EN" "http://www.w3.org/Graphics/SVG/1.1/DTD/svg11.dtd">
<svg version="1.1" id="Layer_1" xmlns="http://www.w3.org/2000/svg" xmlns:xlink="http://www.w3.org/1999/xlink" x="0px" y="0px"
	 viewBox="400 500 300 700"  xml:space="preserve" >
<path style="fill:#ffcb05"  d="M414.3,659.8c14.6,0,27.7,0,40.8,0c74.3,0,148.7,0,223,0c10.5,0,19.2,3.4,25.5,12c3.9,5.3,5.3,11.4,5.3,17.9
	c0,63.3,0,126.7,0,190c0,52.5-0.1,105,0.1,157.5c0,12.7-3.9,23.1-15.7,28.9c-4.5,2.2-9.9,3.2-14.9,3.3c-90.7,0.2-181.3,0.1-272,0.1
	c-18.8,0-30.4-11.8-30.4-30.8c0-121.8,0-243.6-0.1-365.5c0-9,3.1-16.5,9.5-22.8c10.9-10.7,21.8-21.6,32.6-32.5
	c6.2-6.3,13.6-9.2,22.4-9.2c61,0.1,122,0.1,183,0.1c35,0,70,0,105,0c20.4,0,31.6,11.2,31.6,31.4c0,121.8,0,243.6,0,365.5
	c0,8.1-2.6,15-8.2,20.8c-5.4,5.5-10.8,11.1-16.2,16.6c-0.4-0.2-0.9-0.5-1.3-0.7c0-9.9,0-19.9,0-29.8c0-112.3,0-224.6,0-337
	c0-8.2,0-16.3,0-24.5c0-11.4-5.3-16.8-16.8-16.8c-33.2,0-66.3,0-99.5,0c-57.5,0-115,0-172.5-0.1c-3.8,0-6.5,1-9.2,3.8
	C429.5,644.9,422.4,651.7,414.3,659.8z"/>
</svg>
