<?xml version="1.0" encoding="utf-8"?>
<!-- Generator: Adobe Illustrator 18.0.0, SVG Export Plug-In . SVG Version: 6.00 Build 0)  -->
<!DOCTYPE svg PUBLIC "-//W3C//DTD SVG 1.1//EN" "http://www.w3.org/Graphics/SVG/1.1/DTD/svg11.dtd">
<svg version="1.1" id="Layer_1" xmlns="http://www.w3.org/2000/svg" xmlns:xlink="http://www.w3.org/1999/xlink" x="0px" y="0px"
	 viewBox="400 500 300 700" enable-background="new 0 0 1133.9 1700.8" xml:space="preserve">
<path style="fill:#ed1c24" d="M663.8,996.2c-70.9-3.4-127.5-27.7-173.3-75.6c-37.6-39.3-59-86.5-65.2-140.5c-1-8.7-1.4-17.6-1.3-26.4
	c0-7,2.5-13.3,7.6-18.4c5.7-5.6,11.3-11.3,17-17c11.7-11.6,28.2-14.2,42.7-6c9.6,5.4,16.6,13.3,19.5,24.2
	c3.2,11.7,6.5,23.4,9.5,35.2c3.3,13.3,0.2,25-9.1,35.1c-2,2.2-4,4.6-6.4,6.3c-5.9,4.2-5.9,9-3.5,15.4c17,45.3,48.2,75.8,94,91.3
	c3.8,1.3,6.5,1.1,9.2-2.2c2.7-3.3,6-6.2,9.1-9.2c9.4-9,20.8-12,33.2-9.2c12.8,2.9,25.4,6.6,38,10.4c21.4,6.4,33,30.7,24.3,50.8
	c-1.4,3.3-3.6,6.4-6,9c-4.3,4.8-9.5,9-13.6,13.9C681.3,992.9,671.4,997.3,663.8,996.2z"/>
</svg>
